<svg xmlns="http://www.w3.org/2000/svg" width="21" height="20" fill="none" xmlns:v="https://vecta.io/nano"><path fill-rule="evenodd" d="M10.333 0L6.211.06C2.579.227.561 2.242.394 5.877L.333 10l.06 4.123c.167 3.632 2.182 5.65 5.817 5.817l4.123.06 4.123-.06c3.628-.167 5.652-2.182 5.816-5.817L20.333 10l-.06-4.122C20.11 2.249 18.093.228 14.458.061L10.333 0zm0 1.803l4.042.058c2.71.123 3.976 1.409 4.099 4.099l.058 4.041-.058 4.041c-.124 2.687-1.387 3.976-4.099 4.099l-4.042.058c-2.67 0-2.987-.01-4.041-.058-2.717-.124-3.976-1.416-4.099-4.1L2.135 10l.058-4.041C2.318 3.27 3.58 1.983 6.293 1.86l4.041-.058zM5.198 10c0-2.836 2.299-5.135 5.135-5.135S15.468 7.164 15.468 10s-2.299 5.136-5.135 5.136-5.135-2.3-5.135-5.136zm5.135 3.333C8.493 13.333 7 11.842 7 10s1.492-3.333 3.333-3.333S13.667 8.159 13.667 10s-1.492 3.333-3.333 3.333zm4.138-8.671a1.2 1.2 0 1 1 2.4 0 1.2 1.2 0 1 1-2.4 0z" fill="#fff"/></svg>