<svg xmlns="http://www.w3.org/2000/svg" width="20" height="20" fill="none" xmlns:v="https://vecta.io/nano"><path d="M10 0C4.478 0 0 4.477 0 10c0 4.237 2.636 7.855 6.356 9.312-.088-.791-.167-2.004.035-2.867l1.172-4.971s-.299-.599-.299-1.485c0-1.39.806-2.428 1.809-2.428.852 0 1.265.641 1.265 1.408 0 .857-.546 2.14-.828 3.329-.236.995.499 1.808 1.481 1.808 1.777 0 3.143-1.874 3.143-4.579 0-2.394-1.72-4.068-4.177-4.068-2.845 0-4.515 2.134-4.515 4.339 0 .859.331 1.782.744 2.282a.3.3 0 0 1 .069.287l-.277 1.133c-.044.183-.145.223-.335.134-1.249-.582-2.03-2.408-2.03-3.874 0-3.154 2.292-6.052 6.607-6.052 3.469 0 6.165 2.472 6.165 5.776 0 3.447-2.172 6.22-5.189 6.22-1.013 0-1.966-.526-2.292-1.148l-.623 2.378c-.226.869-.835 1.958-1.243 2.622.937.289 1.931.446 2.962.446 5.523 0 10-4.477 10-10S15.523 0 10 0z" fill="#fff"/></svg>