<svg xmlns="http://www.w3.org/2000/svg" width="21" height="18" fill="none" xmlns:v="https://vecta.io/nano"><path d="M20.667 2.797c-.736.327-1.527.547-2.357.646a4.11 4.11 0 0 0 1.804-2.27 8.22 8.22 0 0 1-2.606.996c-.748-.797-1.815-1.296-2.995-1.296a4.11 4.11 0 0 0-3.998 5.037C7.107 5.74 4.083 4.107 2.059 1.624a4.11 4.11 0 0 0 1.269 5.478c-.672-.022-1.305-.206-1.857-.513-.045 1.901 1.318 3.679 3.291 4.075a4.11 4.11 0 0 1-1.853.07c.522 1.63 2.037 2.816 3.833 2.849a8.25 8.25 0 0 1-6.075 1.7c1.816 1.164 3.973 1.843 6.29 1.843 7.618 0 11.923-6.434 11.663-12.205.802-.579 1.498-1.302 2.047-2.124z" fill="#fff"/></svg>